<svg style="vertical-align: middle;fill: white;overflow: hidden;" viewBox="0 0 1024 1024" version="1.1" xmlns="http://www.w3.org/2000/svg">
    <path d="M860.16 213.333333A268.373333 268.373333 0 0 0 512 186.026667a267.52 267.52 0 0 0-348.16 404.48l264.96 265.386666a118.613333 118.613333 0 0 0 166.4 0l264.96-265.386666a267.52 267.52 0 0 0 0-377.173334z m-60.16 318.293334l-264.96 264.96a32.426667 32.426667 0 0 1-46.08 0l-264.96-266.24a183.04 183.04 0 0 1 0-256 182.186667 182.186667 0 0 1 256 0 42.666667 42.666667 0 0 0 60.586667 0 182.186667 182.186667 0 0 1 256 0 183.04 183.04 0 0 1 3.413333 256z" />
</svg>