<svg xmlns="http://www.w3.org/2000/svg" xml:space="preserve" viewBox="0 0 51.44 51.44">
    <path d="m47.352 21.707-.38-1.521-1.415 1.145c-.508-1.412-1.039-2.263-1.283-2.61l-.271-.386-.469-.036a7.37 7.37 0 0 0-.556-.02c-.354 0-.843.026-1.434.101l.624-1.909-1.745.425c-2.831.688-7.237 2.443-12.214 6.946a32.17 32.17 0 0 0-4.496 6.126 32.167 32.167 0 0 0-2.993 7.075c-.013.064-.019.12-.031.183a3.053 3.053 0 0 1-1.275-.563c-.173-.058-.457-.137-.625-.184-2.572-.715-7.927-2.204-7.736-12.057l.009-.16c.269-2.682.87-5.359 1.784-7.96a34.626 34.626 0 0 1 2.409-5.365c-2.366-1.398-4.111-1.803-4.701-1.906a1.002 1.002 0 0 0-.821.227c-.352.301-2.34 2.134-4.01 6.011l.56-.063a21.542 21.542 0 0 0 4.789-.614.998.998 0 1 1 .479 1.941 23.04 23.04 0 0 1-5.139.667l-1.486.168c-.767 2.325-1.369 5.196-1.546 8.702a32.19 32.19 0 0 0 1.153 7.511 32.187 32.187 0 0 0 2.886 7.12c2.415 3.634 4.925 5.4 7.675 5.4 1.278 0 2.359-.376 3.227-.677.487-.17.963-.365 1.25-.326a.999.999 0 0 0 .821-.226c.106-.09.403-.173.729-.248.996 2.025 2.716 2.862 3.967 3.468.442.214.993.48 1.114.654l.271.385.469.036c.211.017.721.354 1.131.624 1.053.696 2.494 1.648 4.512 1.648 2.227 0 4.588-1.155 7.277-3.591a32.123 32.123 0 0 0 4.496-6.127 32.127 32.127 0 0 0 2.993-7.075c1.195-5.916.66-10.301.001-12.939zm-4.456-1.428c.262.455.65 1.24 1.003 2.393l-5.111 4.136 2.056-6.289c.9-.184 1.591-.235 2.052-.24zm-9.323 6.995c-.067.041-6.687 4.146-7.086 12.111a.999.999 0 0 1-.998.95l-.051-.001a1 1 0 0 1-.948-1.049c.454-9.054 7.741-13.538 8.051-13.724a1.001 1.001 0 0 1 1.032 1.713z"/>
    <path d="M13.052 24.463c-.161 8.302 3.867 9.422 6.273 10.091l.086.024a34.12 34.12 0 0 1 1.104-2.735c.817-6.466 2.287-12.544 4.388-18.093a1 1 0 1 1 1.87.709c-1.462 3.862-2.61 7.993-3.438 12.338a33.521 33.521 0 0 1 3.416-4.323l.116-.114c4.664-4.219 8.912-6.182 11.946-7.095-.29-8.281-3.257-12.793-4.575-14.403l-.466.649C32.404 3.167 31.192 5.06 29.8 7.7a1 1 0 1 1-1.769-.932C29.489 4 30.771 2.002 32.188.29l.208-.29c-1.803.311-8.026 1.94-14.334 10.136a32.174 32.174 0 0 0-3.33 6.832 32.162 32.162 0 0 0-1.68 7.495z"/>
</svg>